<svg width="704" height="454" viewBox="0 0 704 454" fill="none" xmlns="http://www.w3.org/2000/svg">
<path d="M0 0H704V2H0V0Z" fill="white"/>
<path d="M0 4H704V6H0V4Z" fill="white"/>
<path d="M0 8H704V10H0V8Z" fill="white"/>
<path d="M0 12H704V14H0V12Z" fill="white"/>
<path d="M0 16H704V18H0V16Z" fill="white"/>
<path d="M0 20H704V22H0V20Z" fill="white"/>
<path d="M0 24H704V26H0V24Z" fill="white"/>
<path d="M0 28H704V30H0V28Z" fill="white"/>
<path d="M0 32H704V34H0V32Z" fill="white"/>
<path d="M0 36H704V38H0V36Z" fill="white"/>
<path d="M0 40H704V42H0V40Z" fill="white"/>
<path d="M0 44H704V46H0V44Z" fill="white"/>
<path d="M0 48H704V50H0V48Z" fill="white"/>
<path d="M0 52H704V54H0V52Z" fill="white"/>
<path d="M0 56H704V58H0V56Z" fill="white"/>
<path d="M0 60H704V62H0V60Z" fill="white"/>
<path d="M0 64H704V66H0V64Z" fill="white"/>
<path d="M0 68H704V70H0V68Z" fill="white"/>
<path d="M0 72H704V74H0V72Z" fill="white"/>
<path d="M0 76H704V78H0V76Z" fill="white"/>
<path d="M0 80H704V82H0V80Z" fill="white"/>
<path d="M0 84H704V86H0V84Z" fill="white"/>
<path d="M0 88H704V90H0V88Z" fill="white"/>
<path d="M0 92H704V94H0V92Z" fill="white"/>
<path d="M0 96H704V98H0V96Z" fill="white"/>
<path d="M0 100H704V102H0V100Z" fill="white"/>
<path d="M0 104H704V106H0V104Z" fill="white"/>
<path d="M0 108H704V110H0V108Z" fill="white"/>
<path d="M0 112H704V114H0V112Z" fill="white"/>
<path d="M0 116H704V118H0V116Z" fill="white"/>
<path d="M0 120H704V122H0V120Z" fill="white"/>
<path d="M0 124H704V126H0V124Z" fill="white"/>
<path d="M0 128H704V130H0V128Z" fill="white"/>
<path d="M0 132H704V134H0V132Z" fill="white"/>
<path d="M0 136H704V138H0V136Z" fill="white"/>
<path d="M0 140H704V142H0V140Z" fill="white"/>
<path d="M0 144H704V146H0V144Z" fill="white"/>
<path d="M0 148H704V150H0V148Z" fill="white"/>
<path d="M0 152H704V154H0V152Z" fill="white"/>
<path d="M0 156H704V158H0V156Z" fill="white"/>
<path d="M0 160H704V162H0V160Z" fill="white"/>
<path d="M0 164H704V166H0V164Z" fill="white"/>
<path d="M0 168H704V170H0V168Z" fill="white"/>
<path d="M0 172H704V174H0V172Z" fill="white"/>
<path d="M0 176H704V178H0V176Z" fill="white"/>
<path d="M0 180H704V182H0V180Z" fill="white"/>
<path d="M0 184H704V186H0V184Z" fill="white"/>
<path d="M0 188H704V190H0V188Z" fill="white"/>
<path d="M0 192H704V194H0V192Z" fill="white"/>
<path d="M0 196H704V198H0V196Z" fill="white"/>
<path d="M0 200H704V202H0V200Z" fill="white"/>
<path d="M0 204H704V206H0V204Z" fill="white"/>
<path d="M0 208H704V210H0V208Z" fill="white"/>
<path d="M0 212H704V214H0V212Z" fill="white"/>
<path d="M0 216H704V218H0V216Z" fill="white"/>
<path d="M0 220H704V222H0V220Z" fill="white"/>
<path d="M0 224H704V226H0V224Z" fill="white"/>
<path d="M0 228H704V230H0V228Z" fill="white"/>
<path d="M0 232H704V234H0V232Z" fill="white"/>
<path d="M0 236H704V238H0V236Z" fill="white"/>
<path d="M0 240H704V242H0V240Z" fill="white"/>
<path d="M0 244H704V246H0V244Z" fill="white"/>
<path d="M0 248H704V250H0V248Z" fill="white"/>
<path d="M0 252H704V254H0V252Z" fill="white"/>
<path d="M0 256H704V258H0V256Z" fill="white"/>
<path d="M0 260H704V262H0V260Z" fill="white"/>
<path d="M0 264H704V266H0V264Z" fill="white"/>
<path d="M0 268H704V270H0V268Z" fill="white"/>
<path d="M0 272H704V274H0V272Z" fill="white"/>
<path d="M0 276H704V278H0V276Z" fill="white"/>
<path d="M0 280H704V282H0V280Z" fill="white"/>
<path d="M0 284H704V286H0V284Z" fill="white"/>
<path d="M0 288H704V290H0V288Z" fill="white"/>
<path d="M0 292H704V294H0V292Z" fill="white"/>
<path d="M0 296H704V298H0V296Z" fill="white"/>
<path d="M0 300H704V302H0V300Z" fill="white"/>
<path d="M0 304H704V306H0V304Z" fill="white"/>
<path d="M0 308H704V310H0V308Z" fill="white"/>
<path d="M0 312H704V314H0V312Z" fill="white"/>
<path d="M0 316H704V318H0V316Z" fill="white"/>
<path d="M0 320H704V322H0V320Z" fill="white"/>
<path d="M0 324H704V326H0V324Z" fill="white"/>
<path d="M0 328H704V330H0V328Z" fill="white"/>
<path d="M0 332H704V334H0V332Z" fill="white"/>
<path d="M0 336H704V338H0V336Z" fill="white"/>
<path d="M0 340H704V342H0V340Z" fill="white"/>
<path d="M0 344H704V346H0V344Z" fill="white"/>
<path d="M0 348H704V350H0V348Z" fill="white"/>
<path d="M0 352H704V354H0V352Z" fill="white"/>
<path d="M0 356H704V358H0V356Z" fill="white"/>
<path d="M0 360H704V362H0V360Z" fill="white"/>
<path d="M0 364H704V366H0V364Z" fill="white"/>
<path d="M0 368H704V370H0V368Z" fill="white"/>
<path d="M0 372H704V374H0V372Z" fill="white"/>
<path d="M0 376H704V378H0V376Z" fill="white"/>
<path d="M0 380H704V382H0V380Z" fill="white"/>
<path d="M0 384H704V386H0V384Z" fill="white"/>
<path d="M0 388H704V390H0V388Z" fill="white"/>
<path d="M0 392H704V394H0V392Z" fill="white"/>
<path d="M0 396H704V398H0V396Z" fill="white"/>
<path d="M0 400H704V402H0V400Z" fill="white"/>
<path d="M0 404H704V406H0V404Z" fill="white"/>
<path d="M0 408H704V410H0V408Z" fill="white"/>
<path d="M0 412H704V414H0V412Z" fill="white"/>
<path d="M0 416H704V418H0V416Z" fill="white"/>
<path d="M0 420H704V422H0V420Z" fill="white"/>
<path d="M0 424H704V426H0V424Z" fill="white"/>
<path d="M0 428H704V430H0V428Z" fill="white"/>
<path d="M0 432H704V434H0V432Z" fill="white"/>
<path d="M0 436H704V438H0V436Z" fill="white"/>
<path d="M0 440H704V442H0V440Z" fill="white"/>
<path d="M0 444H704V446H0V444Z" fill="white"/>
<path d="M0 448H704V450H0V448Z" fill="white"/>
<path d="M0 452H704V454H0V452Z" fill="white"/>
</svg>
